<svg xmlns="http://www.w3.org/2000/svg" width="48" height="48" viewBox="0 0 48 48">
    <g fill="none" fill-rule="evenodd">
        <path d="M0 0L48 0 48 48 0 48z"/>
        <rect width="4" height="20" x="28" y="14" fill="#000" opacity=".3" rx="2" transform="matrix(0 -1 -1 0 54 54)"/>
        <path fill="#000" fill-rule="nonzero" d="M25.414 34.586c.781.78.781 2.047 0 2.828-.78.781-2.047.781-2.828 0l-12-12c-.757-.757-.784-1.976-.06-2.765l11-12c.746-.815 2.011-.87 2.825-.123.815.746.87 2.011.123 2.825L14.768 23.94l10.646 10.646z"/>
    </g>
</svg>
