<svg xmlns="http://www.w3.org/2000/svg" width="48" height="48" viewBox="0 0 48 48">
    <g fill="none" fill-rule="evenodd">
        <path d="M0 0H48V48H0z"/>
        <circle cx="24" cy="24" r="20" fill="#000" opacity=".3"/>
        <path fill="#000" d="M18.414 15.586l5.657 5.656 5.657-5.656c.781-.781 2.047-.781 2.828 0 .781.78.781 2.047 0 2.828L26.9 24.071l5.656 5.657c.781.781.781 2.047 0 2.828-.78.781-2.047.781-2.828 0L24.07 26.9l-5.657 5.656c-.78.781-2.047.781-2.828 0-.781-.78-.781-2.047 0-2.828l5.656-5.657-5.656-5.657c-.781-.78-.781-2.047 0-2.828.78-.781 2.047-.781 2.828 0z"/>
    </g>
</svg>
